# xmcd CD database file
#
# Track frame offsets:
#	150
#	18447
#	51672
#	86756
#	116319
#	135233
#	165384
#	185438
#	211635
#	230660
#
# Disc length: 3315 seconds
#
# Revision: 0
# Processed by: cddbd v1.5.2PL0 Copyright (c) Steve Scherf et al.
# Submitted via: CDex 1.79
#
DISCID=7b0cf10a
DTITLE=Various Performers - This is Venus Jazz 80 Gold Discs from 2007 to 2010  Vol. 4 [CD2]
DYEAR=2013
DGENRE=Jazz
TTITLE0=Fly Me To The Moon - Nicki Parrott
TTITLE1=No Regrets - Bil Charlap and Ken Peplowski
TTITLE2=Afinque - Brian Lynch Afro Cuban Jazz Orchestra
TTITLE3=Minor Blues - Kenny Barron Trio
TTITLE4=For Now For Always - Alexis Cole
TTITLE5=Infant Eyes - Aaron Heick and Romantic Jazz Trio
TTITLE6=The Fool On The Hill - John Di Martino's Romantic Jazz Trio
TTITLE7=Smoke Gets In Your Eyes - Joel Frahm Quartet
TTITLE8=Fever - Nicki Parrott
TTITLE9=I Can't Get Started - Bill Charlap Trio
EXTD=YEAR: 2013
EXTT0=
EXTT1=
EXTT2=
EXTT3=
EXTT4=
EXTT5=
EXTT6=
EXTT7=
EXTT8=
EXTT9=
PLAYORDER=
